<svg width="1440" height="1238" viewBox="0 0 1440 1238" fill="none" xmlns="http://www.w3.org/2000/svg">
<path d="M1448.07 1237.34H-10V1234.66H1448.07V1237.34ZM-7.07227 -7.83594H87.2051V-40.1826H90.1328V-7.83594H184.409V-40.1826H187.338V-7.83594H281.614V-40.1826H284.542V-7.83594H378.819V-40.1826H381.747V-7.83594H476.024V-40.1826H478.952V-7.83594H573.229V-40.1826H576.156V-7.83594H670.434V-40.1826H673.361V-7.83594H767.639V-40.1826H770.566V-7.83594H864.845V-40.1826H867.772V-7.83594H962.048V-40.1826H964.976V-7.83594H1059.25V-40.1826H1062.18V-7.83594H1156.46V-40.1826H1159.39V-7.83594H1253.66V-40.1826H1256.59V-7.83594H1350.87V-40.1826H1353.79V-7.83594H1448.07V-40.1826H1451V1180.93H1448.07V1148.59H1353.79V1180.93H1350.87V1148.59H1256.59V1180.93H1253.66V1148.59H1159.39V1180.93H1156.46V1148.59H1062.18V1180.93H1059.25V1148.59H964.976V1180.93H962.048V1148.59H867.772V1180.93H864.845V1148.59H770.566V1180.93H767.639V1148.59H673.361V1180.93H670.434V1148.59H576.156V1180.93H573.229V1148.59H478.952V1180.93H476.024V1148.59H381.747V1180.93H378.819V1148.59H284.542V1180.93H281.614V1148.59H187.338V1180.93H184.409V1148.59H90.1328V1180.93H87.2051V1148.59H-7.07227V1180.93H-10V-40.1826H-7.07227V-7.83594ZM-7.07227 1059.84V1145.91H87.2051V1059.84H-7.07227ZM90.1328 1059.84V1145.91H184.409V1059.84H90.1328ZM187.338 1059.84V1145.91H281.614V1059.84H187.338ZM284.542 1059.84V1145.91H378.819V1059.84H284.542ZM381.747 1059.84V1145.91H476.024V1059.84H381.747ZM478.952 1059.84V1145.91H573.229V1059.84H478.952ZM576.156 1059.84V1145.91H670.434V1059.84H576.156ZM673.361 1059.84V1145.91H767.639V1059.84H673.361ZM770.566 1059.84V1145.91H864.845V1059.84H770.566ZM867.772 1059.84V1145.91H962.048V1059.84H867.772ZM964.976 1059.84V1145.91H1059.25V1059.84H964.976ZM1062.18 1059.84V1145.91H1156.46V1059.84H1062.18ZM1159.39 1059.84V1145.91H1253.66V1059.84H1159.39ZM1256.59 1059.84V1145.91H1350.87V1059.84H1256.59ZM1353.79 1059.84V1145.91H1448.07V1059.84H1353.79ZM-7.07227 971.087V1057.16H87.2051V971.087H-7.07227ZM90.1328 971.087V1057.16H184.409V971.087H90.1328ZM187.338 971.087V1057.16H281.614V971.087H187.338ZM284.542 971.087V1057.16H378.819V971.087H284.542ZM381.747 971.087V1057.16H476.024V971.087H381.747ZM478.952 971.087V1057.16H573.229V971.087H478.952ZM576.156 971.087V1057.16H670.434V971.087H576.156ZM673.361 971.087V1057.16H767.639V971.087H673.361ZM770.566 971.087V1057.16H864.845V971.087H770.566ZM867.772 971.087V1057.16H962.048V971.087H867.772ZM964.976 971.087V1057.16H1059.25V971.087H964.976ZM1062.18 971.087V1057.16H1156.46V971.087H1062.18ZM1159.39 971.087V1057.16H1253.66V971.087H1159.39ZM1256.59 971.087V1057.16H1350.87V971.087H1256.59ZM1353.79 971.087V1057.16H1448.07V971.087H1353.79ZM-7.07227 882.337V968.414H87.2051V882.337H-7.07227ZM90.1328 882.337V968.414H184.409V882.337H90.1328ZM187.338 882.337V968.414H281.614V882.337H187.338ZM284.542 882.337V968.414H378.819V882.337H284.542ZM381.747 882.337V968.414H476.024V882.337H381.747ZM478.952 882.337V968.414H573.229V882.337H478.952ZM576.156 882.337V968.414H670.434V882.337H576.156ZM673.361 882.337V968.414H767.639V882.337H673.361ZM770.566 882.337V968.414H864.845V882.337H770.566ZM867.772 882.337V968.414H962.048V882.337H867.772ZM964.976 882.337V968.414H1059.25V882.337H964.976ZM1062.18 882.337V968.414H1156.46V882.337H1062.18ZM1159.39 882.337V968.414H1253.66V882.337H1159.39ZM1256.59 882.337V968.414H1350.87V882.337H1256.59ZM1353.79 882.337V968.414H1448.07V882.337H1353.79ZM-7.07227 793.586V879.663H87.2051V793.586H-7.07227ZM90.1328 793.586V879.663H184.409V793.586H90.1328ZM187.338 793.586V879.663H281.614V793.586H187.338ZM284.542 793.586V879.663H378.819V793.586H284.542ZM381.747 793.586V879.663H476.024V793.586H381.747ZM478.952 793.586V879.663H573.229V793.586H478.952ZM576.156 793.586V879.663H670.434V793.586H576.156ZM673.361 793.586V879.663H767.639V793.586H673.361ZM770.566 793.586V879.663H864.845V793.586H770.566ZM867.772 793.586V879.663H962.048V793.586H867.772ZM964.976 793.586V879.663H1059.25V793.586H964.976ZM1062.18 793.586V879.663H1156.46V793.586H1062.18ZM1159.39 793.586V879.663H1253.66V793.586H1159.39ZM1256.59 793.586V879.663H1350.87V793.586H1256.59ZM1353.79 793.586V879.663H1448.07V793.586H1353.79ZM-7.07227 704.837V790.913H87.2051V704.837H-7.07227ZM90.1328 704.837V790.913H184.409V704.837H90.1328ZM187.338 704.837V790.913H281.614V704.837H187.338ZM284.542 704.837V790.913H378.819V704.837H284.542ZM381.747 704.837V790.913H476.024V704.837H381.747ZM478.952 704.837V790.913H573.229V704.837H478.952ZM576.156 704.837V790.913H670.434V704.837H576.156ZM673.361 704.837V790.913H767.639V704.837H673.361ZM770.566 704.837V790.913H864.845V704.837H770.566ZM867.772 704.837V790.913H962.048V704.837H867.772ZM964.976 704.837V790.913H1059.25V704.837H964.976ZM1062.18 704.837V790.913H1156.46V704.837H1062.18ZM1159.39 704.837V790.913H1253.66V704.837H1159.39ZM1256.59 704.837V790.913H1350.87V704.837H1256.59ZM1353.79 704.837V790.913H1448.07V704.837H1353.79ZM-7.07227 616.087V702.164H87.2051V616.087H-7.07227ZM90.1328 616.087V702.164H184.409V616.087H90.1328ZM187.338 616.087V702.164H281.614V616.087H187.338ZM284.542 616.087V702.164H378.819V616.087H284.542ZM381.747 616.087V702.164H476.024V616.087H381.747ZM478.952 616.087V702.164H573.229V616.087H478.952ZM576.156 616.087V702.164H670.434V616.087H576.156ZM673.361 616.087V702.164H767.639V616.087H673.361ZM770.566 616.087V702.164H864.845V616.087H770.566ZM867.772 616.087V702.164H962.048V616.087H867.772ZM964.976 616.087V702.164H1059.25V616.087H964.976ZM1062.18 616.087V702.164H1156.46V616.087H1062.18ZM1159.39 616.087V702.164H1253.66V616.087H1159.39ZM1256.59 616.087V702.164H1350.87V616.087H1256.59ZM1353.79 616.087V702.164H1448.07V616.087H1353.79ZM-7.07227 527.336V613.413H87.2051V527.336H-7.07227ZM90.1328 527.336V613.413H184.409V527.336H90.1328ZM187.338 527.336V613.413H281.614V527.336H187.338ZM284.542 527.336V613.413H378.819V527.336H284.542ZM381.747 527.336V613.413H476.024V527.336H381.747ZM478.952 527.336V613.413H573.229V527.336H478.952ZM576.156 527.336V613.413H670.434V527.336H576.156ZM673.361 527.336V613.413H767.639V527.336H673.361ZM770.566 527.336V613.413H864.845V527.336H770.566ZM867.772 527.336V613.413H962.048V527.336H867.772ZM964.976 527.336V613.413H1059.25V527.336H964.976ZM1062.18 527.336V613.413H1156.46V527.336H1062.18ZM1159.39 527.336V613.413H1253.66V527.336H1159.39ZM1256.59 527.336V613.413H1350.87V527.336H1256.59ZM1353.79 527.336V613.413H1448.07V527.336H1353.79ZM-7.07227 438.586V524.663H87.2051V438.586H-7.07227ZM90.1328 438.586V524.663H184.409V438.586H90.1328ZM187.338 438.586V524.663H281.614V438.586H187.338ZM284.542 438.586V524.663H378.819V438.586H284.542ZM381.747 438.586V524.663H476.024V438.586H381.747ZM478.952 438.586V524.663H573.229V438.586H478.952ZM576.156 438.586V524.663H670.434V438.586H576.156ZM673.361 438.586V524.663H767.639V438.586H673.361ZM770.566 438.586V524.663H864.845V438.586H770.566ZM867.772 438.586V524.663H962.048V438.586H867.772ZM964.976 438.586V524.663H1059.25V438.586H964.976ZM1062.18 438.586V524.663H1156.46V438.586H1062.18ZM1159.39 438.586V524.663H1253.66V438.586H1159.39ZM1256.59 438.586V524.663H1350.87V438.586H1256.59ZM1353.79 438.586V524.663H1448.07V438.586H1353.79ZM-7.07227 349.837V435.913H87.2051V349.837H-7.07227ZM90.1328 349.837V435.913H184.409V349.837H90.1328ZM187.338 349.837V435.913H281.614V349.837H187.338ZM284.542 349.837V435.913H378.819V349.837H284.542ZM381.747 349.837V435.913H476.024V349.837H381.747ZM478.952 349.837V435.913H573.229V349.837H478.952ZM576.156 349.837V435.913H670.434V349.837H576.156ZM673.361 349.837V435.913H767.639V349.837H673.361ZM770.566 349.837V435.913H864.845V349.837H770.566ZM867.772 349.837V435.913H962.048V349.837H867.772ZM964.976 349.837V435.913H1059.25V349.837H964.976ZM1062.18 349.837V435.913H1156.46V349.837H1062.18ZM1159.39 349.837V435.913H1253.66V349.837H1159.39ZM1256.59 349.837V435.913H1350.87V349.837H1256.59ZM1353.79 349.837V435.913H1448.07V349.837H1353.79ZM-7.07227 261.087V347.164H87.2051V261.087H-7.07227ZM90.1328 261.087V347.164H184.409V261.087H90.1328ZM187.338 261.087V347.164H281.614V261.087H187.338ZM284.542 261.087V347.164H378.819V261.087H284.542ZM381.747 261.087V347.164H476.024V261.087H381.747ZM478.952 261.087V347.164H573.229V261.087H478.952ZM576.156 261.087V347.164H670.434V261.087H576.156ZM673.361 261.087V347.164H767.639V261.087H673.361ZM770.566 261.087V347.164H864.845V261.087H770.566ZM867.772 261.087V347.164H962.048V261.087H867.772ZM964.976 261.087V347.164H1059.25V261.087H964.976ZM1062.18 261.087V347.164H1156.46V261.087H1062.18ZM1159.39 261.087V347.164H1253.66V261.087H1159.39ZM1256.59 261.087V347.164H1350.87V261.087H1256.59ZM1353.79 261.087V347.164H1448.07V261.087H1353.79ZM-7.07227 172.336V258.413H87.2051V172.336H-7.07227ZM90.1328 172.336V258.413H184.409V172.336H90.1328ZM187.338 172.336V258.413H281.614V172.336H187.338ZM284.542 172.336V258.413H378.819V172.336H284.542ZM381.747 172.336V258.413H476.024V172.336H381.747ZM478.952 172.336V258.413H573.229V172.336H478.952ZM576.156 172.336V258.413H670.434V172.336H576.156ZM673.361 172.336V258.413H767.639V172.336H673.361ZM770.566 172.336V258.413H864.845V172.336H770.566ZM867.772 172.336V258.413H962.048V172.336H867.772ZM964.976 172.336V258.413H1059.25V172.336H964.976ZM1062.18 172.336V258.413H1156.46V172.336H1062.18ZM1159.39 172.336V258.413H1253.66V172.336H1159.39ZM1256.59 172.336V258.413H1350.87V172.336H1256.59ZM1353.79 172.336V258.413H1448.07V172.336H1353.79ZM-7.07227 83.5859V169.663H87.2051V83.5859H-7.07227ZM90.1328 83.5859V169.663H184.409V83.5859H90.1328ZM187.338 83.5859V169.663H281.614V83.5859H187.338ZM284.542 83.5859V169.663H378.819V83.5859H284.542ZM381.747 83.5859V169.663H476.024V83.5859H381.747ZM478.952 83.5859V169.663H573.229V83.5859H478.952ZM576.156 83.5859V169.663H670.434V83.5859H576.156ZM673.361 83.5859V169.663H767.639V83.5859H673.361ZM770.566 83.5859V169.663H864.845V83.5859H770.566ZM867.772 83.5859V169.663H962.048V83.5859H867.772ZM964.976 83.5859V169.663H1059.25V83.5859H964.976ZM1062.18 83.5859V169.663H1156.46V83.5859H1062.18ZM1159.39 83.5859V169.663H1253.66V83.5859H1159.39ZM1256.59 83.5859V169.663H1350.87V83.5859H1256.59ZM1353.79 83.5859V169.663H1448.07V83.5859H1353.79ZM-7.07227 -5.16309V80.9131H87.2051V-5.16309H-7.07227ZM90.1328 -5.16309V80.9131H184.409V-5.16309H90.1328ZM187.338 -5.16309V80.9131H281.614V-5.16309H187.338ZM284.542 -5.16309V80.9131H378.819V-5.16309H284.542ZM381.747 -5.16309V80.9131H476.024V-5.16309H381.747ZM478.952 -5.16309V80.9131H573.229V-5.16309H478.952ZM576.156 -5.16309V80.9131H670.434V-5.16309H576.156ZM673.361 -5.16309V80.9131H767.639V-5.16309H673.361ZM770.566 -5.16309V80.9131H864.845V-5.16309H770.566ZM867.772 -5.16309V80.9131H962.048V-5.16309H867.772ZM964.976 -5.16309V80.9131H1059.25V-5.16309H964.976ZM1062.18 -5.16309V80.9131H1156.46V-5.16309H1062.18ZM1159.39 -5.16309V80.9131H1253.66V-5.16309H1159.39ZM1256.59 -5.16309V80.9131H1350.87V-5.16309H1256.59ZM1353.79 -5.16309V80.9131H1448.07V-5.16309H1353.79ZM1448.07 -93.9141H-10V-96.5869H1448.07V-93.9141Z" fill="url(#paint0_linear_1456_136)"/>
<defs>
<linearGradient id="paint0_linear_1456_136" x1="720.5" y1="-276.676" x2="720.5" y2="1394.85" gradientUnits="userSpaceOnUse">
<stop stop-color="#F7F7F7" stop-opacity="0.0256603"/>
<stop offset="0.633007" stop-color="#BDBDBD" stop-opacity="0.22"/>
<stop offset="1" stop-color="white" stop-opacity="0"/>
</linearGradient>
</defs>
</svg>
