<svg width="70" height="70" viewBox="0 0 70 70" fill="none" xmlns="http://www.w3.org/2000/svg">
<rect width="70" height="70" rx="12" fill="#F59216"/>
<path fill-rule="evenodd" clip-rule="evenodd" d="M48.7375 36.0911C49.3099 36.5901 49.3694 37.4588 48.8704 38.0311L39.5371 48.7371C39.1603 49.1692 38.5549 49.3221 38.0181 49.121C37.4813 48.9198 37.1257 48.4067 37.1257 47.8334L37.1257 22.1667C37.1257 21.4074 37.7413 20.7917 38.5007 20.7917C39.26 20.7917 39.8756 21.4074 39.8756 22.1667L39.8756 44.1638L46.7975 36.224C47.2965 35.6516 48.1651 35.5921 48.7375 36.0911Z" fill="black"/>
<path fill-rule="evenodd" clip-rule="evenodd" d="M21.2632 33.9089C20.6907 33.4099 20.6313 32.5412 21.1303 31.9689L30.4636 21.263C30.8404 20.8309 31.4457 20.6778 31.9825 20.879C32.5193 21.0802 32.875 21.5933 32.875 22.1666L32.875 47.8332C32.875 48.5926 32.2594 49.2082 31.5 49.2082C30.7406 49.2082 30.125 48.5926 30.125 47.8332L30.125 25.8362L23.2031 33.776C22.704 34.3483 21.8356 34.4079 21.2632 33.9089Z" fill="black"/>
</svg>
