<svg width="70" height="70" viewBox="0 0 70 70" fill="none" xmlns="http://www.w3.org/2000/svg">
<rect width="70" height="70" rx="12" fill="url(#paint0_linear_1456_123)"/>
<path fill-rule="evenodd" clip-rule="evenodd" d="M48.737 36.0911C49.3094 36.5901 49.3689 37.4588 48.8699 38.0311L39.5366 48.7371C39.1599 49.1692 38.5544 49.3221 38.0177 49.121C37.4808 48.9198 37.1252 48.4067 37.1252 47.8334L37.1252 22.1667C37.1252 21.4074 37.7408 20.7917 38.5002 20.7917C39.2595 20.7917 39.8751 21.4074 39.8751 22.1667L39.8751 44.1638L46.797 36.224C47.2961 35.6516 48.1646 35.5921 48.737 36.0911Z" fill="black"/>
<path fill-rule="evenodd" clip-rule="evenodd" d="M21.2632 33.9089C20.6907 33.4099 20.6313 32.5412 21.1303 31.9689L30.4636 21.263C30.8404 20.8309 31.4457 20.6778 31.9825 20.879C32.5193 21.0802 32.875 21.5933 32.875 22.1666L32.875 47.8332C32.875 48.5926 32.2594 49.2082 31.5 49.2082C30.7406 49.2082 30.125 48.5926 30.125 47.8332L30.125 25.8362L23.2031 33.776C22.704 34.3483 21.8356 34.4079 21.2632 33.9089Z" fill="black"/>
<defs>
<linearGradient id="paint0_linear_1456_123" x1="35" y1="0" x2="35" y2="70" gradientUnits="userSpaceOnUse">
<stop stop-color="#FF9B07"/>
<stop offset="1" stop-color="#FFD3AD"/>
</linearGradient>
</defs>
</svg>
