<svg width="26" height="26" viewBox="0 0 26 26" fill="none" xmlns="http://www.w3.org/2000/svg">
<g clip-path="url(#clip0_1817_1787)">
<path d="M13 16.25C14.7949 16.25 16.25 14.7949 16.25 13C16.25 11.2051 14.7949 9.75 13 9.75C11.2051 9.75 9.75 11.2051 9.75 13C9.75 14.7949 11.2051 16.25 13 16.25Z" stroke="white" stroke-width="2" stroke-linecap="round" stroke-linejoin="round"/>
<path d="M21.0163 16.2499C20.8721 16.5767 20.8291 16.9391 20.8928 17.2906C20.9566 17.642 21.1241 17.9663 21.3738 18.2216L21.4388 18.2866C21.6403 18.4878 21.8001 18.7268 21.9091 18.9898C22.0182 19.2528 22.0743 19.5348 22.0743 19.8195C22.0743 20.1042 22.0182 20.3862 21.9091 20.6492C21.8001 20.9122 21.6403 21.1512 21.4388 21.3524C21.2376 21.5539 20.9987 21.7137 20.7356 21.8227C20.4726 21.9318 20.1907 21.9879 19.9059 21.9879C19.6212 21.9879 19.3393 21.9318 19.0762 21.8227C18.8132 21.7137 18.5742 21.5539 18.373 21.3524L18.308 21.2874C18.0527 21.0377 17.7284 20.8701 17.377 20.8064C17.0256 20.7427 16.6631 20.7857 16.3363 20.9299C16.0159 21.0672 15.7427 21.2953 15.5502 21.5859C15.3577 21.8766 15.2544 22.2172 15.253 22.5658V22.7499C15.253 23.3246 15.0247 23.8757 14.6184 24.282C14.2121 24.6883 13.661 24.9166 13.0863 24.9166C12.5117 24.9166 11.9606 24.6883 11.5543 24.282C11.1479 23.8757 10.9197 23.3246 10.9197 22.7499V22.6524C10.9113 22.2938 10.7952 21.9461 10.5866 21.6543C10.3779 21.3626 10.0863 21.1404 9.74967 21.0166C9.42292 20.8724 9.06047 20.8294 8.70904 20.8931C8.35761 20.9568 8.03333 21.1243 7.77801 21.3741L7.71301 21.4391C7.51178 21.6405 7.27282 21.8003 7.0098 21.9094C6.74677 22.0184 6.46482 22.0745 6.18009 22.0745C5.89536 22.0745 5.61342 22.0184 5.35039 21.9094C5.08736 21.8003 4.8484 21.6405 4.64717 21.4391C4.44573 21.2379 4.28591 20.9989 4.17688 20.7359C4.06784 20.4728 4.01172 20.1909 4.01172 19.9062C4.01172 19.6214 4.06784 19.3395 4.17688 19.0765C4.28591 18.8134 4.44573 18.5745 4.64717 18.3733L4.71217 18.3083C4.96192 18.0529 5.12946 17.7287 5.19318 17.3772C5.2569 17.0258 5.21388 16.6633 5.06967 16.3366C4.93235 16.0162 4.70433 15.7429 4.41368 15.5504C4.12303 15.3579 3.78244 15.2546 3.43384 15.2533H3.24967C2.67504 15.2533 2.12394 15.025 1.71761 14.6186C1.31128 14.2123 1.08301 13.6612 1.08301 13.0866C1.08301 12.5119 1.31128 11.9609 1.71761 11.5545C2.12394 11.1482 2.67504 10.9199 3.24967 10.9199H3.34717C3.70575 10.9115 4.05351 10.7955 4.34525 10.5868C4.63698 10.3781 4.8592 10.0865 4.98301 9.74992C5.12722 9.42317 5.17023 9.06071 5.10651 8.70928C5.04279 8.35785 4.87526 8.03357 4.62551 7.77825L4.56051 7.71325C4.35906 7.51203 4.19925 7.27307 4.09021 7.01004C3.98118 6.74701 3.92505 6.46507 3.92505 6.18034C3.92505 5.8956 3.98118 5.61366 4.09021 5.35063C4.19925 5.0876 4.35906 4.84864 4.56051 4.64742C4.76173 4.44597 5.00069 4.28616 5.26372 4.17712C5.52675 4.06809 5.80869 4.01196 6.09342 4.01196C6.37816 4.01196 6.6601 4.06809 6.92313 4.17712C7.18616 4.28616 7.42512 4.44597 7.62634 4.64742L7.69134 4.71242C7.94666 4.96217 8.27094 5.1297 8.62237 5.19342C8.9738 5.25714 9.33626 5.21413 9.66301 5.06992H9.74967C10.0701 4.93259 10.3434 4.70457 10.5358 4.41392C10.7283 4.12328 10.8316 3.78269 10.833 3.43409V3.24992C10.833 2.67528 11.0613 2.12418 11.4676 1.71785C11.8739 1.31153 12.425 1.08325 12.9997 1.08325C13.5743 1.08325 14.1254 1.31153 14.5317 1.71785C14.9381 2.12418 15.1663 2.67528 15.1663 3.24992V3.34742C15.1677 3.69602 15.271 4.03661 15.4635 4.32726C15.656 4.6179 15.9293 4.84593 16.2497 4.98325C16.5764 5.12746 16.9389 5.17048 17.2903 5.10676C17.6417 5.04304 17.966 4.8755 18.2213 4.62575L18.2863 4.56075C18.4876 4.3593 18.7265 4.19949 18.9896 4.09046C19.2526 3.98142 19.5345 3.9253 19.8193 3.9253C20.104 3.9253 20.3859 3.98142 20.649 4.09046C20.912 4.19949 21.1509 4.3593 21.3522 4.56075C21.5536 4.76198 21.7134 5.00094 21.8225 5.26396C21.9315 5.52699 21.9876 5.80894 21.9876 6.09367C21.9876 6.3784 21.9315 6.66034 21.8225 6.92337C21.7134 7.1864 21.5536 7.42536 21.3522 7.62659L21.2872 7.69159C21.0374 7.9469 20.8699 8.27119 20.8062 8.62261C20.7424 8.97404 20.7855 9.3365 20.9297 9.66325V9.74992C21.067 10.0703 21.295 10.3436 21.5857 10.5361C21.8763 10.7286 22.2169 10.8319 22.5655 10.8333H22.7497C23.3243 10.8333 23.8754 11.0615 24.2817 11.4679C24.6881 11.8742 24.9163 12.4253 24.9163 12.9999C24.9163 13.5746 24.6881 14.1257 24.2817 14.532C23.8754 14.9383 23.3243 15.1666 22.7497 15.1666H22.6522C22.3036 15.168 21.963 15.2713 21.6723 15.4638C21.3817 15.6562 21.1537 15.9295 21.0163 16.2499Z" stroke="white" stroke-width="2" stroke-linecap="round" stroke-linejoin="round"/>
</g>
<defs>
<clipPath id="clip0_1817_1787">
<rect width="26" height="26" fill="white"/>
</clipPath>
</defs>
</svg>
