<svg width="30" height="30" viewBox="0 0 30 30" fill="none" xmlns="http://www.w3.org/2000/svg">
<rect x="0.467391" y="0.467391" width="28.9783" height="28.9783" rx="14.4891" fill="#363636"/>
<rect x="0.467391" y="0.467391" width="28.9783" height="28.9783" rx="14.4891" stroke="white" stroke-width="0.934783"/>
<path d="M17.0102 8.67151L14.932 6.54321L9.69884 11.8264L11.7771 13.9046L17.0102 8.67151Z" fill="#F0B90B"/>
<path d="M20.1651 11.8264L18.0868 9.6981L9.69884 18.1362L11.7771 20.2144L20.1651 11.8264Z" fill="#F0B90B"/>
<path d="M8.62217 12.853L10.7004 14.9813L8.62217 17.0595L6.54395 14.9813L8.62217 12.853Z" fill="#F0B90B"/>
<path d="M23.32 14.9813L21.2417 12.853L12.8537 21.2911L14.932 23.3693L23.32 14.9813Z" fill="#F0B90B"/>
<path d="M17.0102 8.67151L14.932 6.54321L9.69884 11.8264L11.7771 13.9046L17.0102 8.67151Z" stroke="#F0B90B" stroke-width="1.14586"/>
<path d="M20.1651 11.8264L18.0868 9.6981L9.69884 18.1362L11.7771 20.2144L20.1651 11.8264Z" stroke="#F0B90B" stroke-width="1.14586"/>
<path d="M8.62217 12.853L10.7004 14.9813L8.62217 17.0595L6.54395 14.9813L8.62217 12.853Z" stroke="#F0B90B" stroke-width="1.14586"/>
<path d="M23.32 14.9813L21.2417 12.853L12.8537 21.2911L14.932 23.3693L23.32 14.9813Z" stroke="#F0B90B" stroke-width="1.14586"/>
</svg>
