<svg width="25" height="17" viewBox="0 0 25 17" fill="none" xmlns="http://www.w3.org/2000/svg">
<path d="M24.7509 3.66814C24.7509 3.66814 24.5069 2.00167 23.7549 1.26992C22.8027 0.306852 21.7383 0.302138 21.25 0.245487C17.754 -1.50074e-07 12.5049 0 12.5049 0H12.4951C12.4951 0 7.24609 -1.50074e-07 3.75 0.245487C3.26172 0.302138 2.19727 0.306852 1.24511 1.26992C0.493165 2.00167 0.253906 3.66814 0.253906 3.66814C0.253906 3.66814 0 5.62733 0 7.58174V9.4135C0 11.3679 0.249023 13.3271 0.249023 13.3271C0.249023 13.3271 0.493163 14.9936 1.24023 15.7254C2.19239 16.6884 3.44239 16.6554 3.99902 16.7592C6.00098 16.9434 12.5 17 12.5 17C12.5 17 17.754 16.9905 21.25 16.7498C21.7383 16.6931 22.8027 16.6884 23.7549 15.7254C24.5069 14.9936 24.7509 13.3271 24.7509 13.3271C24.7509 13.3271 25 11.3727 25 9.4135V7.58174C25 5.62733 24.7509 3.66814 24.7509 3.66814ZM9.91699 11.637V4.84365L16.6699 8.25218L9.91699 11.637Z" fill="white"/>
</svg>
